<?xml version="1.0" encoding="UTF-8"?>
<svg id="Layer_1" data-name="Layer 1" xmlns="http://www.w3.org/2000/svg" viewBox="0 0 945.19 755.18">
  <defs>
    <style>
      .cls-1 {
        fill: #00aeef;
      }

      .cls-2 {
        fill: #fff200;
      }
    </style>
  </defs>
  <path class="cls-1" d="m328.06,0h-188.39C62.53,0,0,62.53,0,139.67v456.36h467.72V139.67C467.72,62.53,405.19,0,328.06,0Zm50.32,543.38l-9.27-200.78c-2.73-63.76-6-140.41-5.45-197.39h-1.64c-12.55,53.59-27.82,110.56-46.36,173.65l-64.91,221.81h-36l-59.45-217.74c-17.45-64.44-32.18-123.45-42.54-177.72h-1.09c-1.09,56.98-3.82,133.63-7.09,202.13l-9.82,196.03h-45.27l25.64-457.18h60.54l62.73,221.13c15.27,56.3,27.82,106.49,37.09,153.97h1.64c9.27-46.12,22.36-96.32,38.73-153.97l65.45-221.13h60.54l22.91,457.18h-46.36Z"/>
  <g>
    <path class="cls-1" d="m700.96,128.26c-22.91,0-39.27,2.71-46.91,5.43v166.86h48.54c50.72,0,82.91-34.59,82.91-86.82,0-59.01-34.36-84.79-84.54-85.47Z"/>
    <path class="cls-1" d="m805.53,0h-188.39c-77.14,0-139.67,62.53-139.67,139.67v456.36h467.72V139.67C945.19,62.53,882.66,0,805.53,0Zm-8.57,543.38c-6-12.89-14.18-52.23-24.54-109.21-10.91-63.08-30.54-86.82-73.63-88.86h-44.73v198.06h-47.45V92.31c24-6.1,58.36-9.5,91.09-9.5,50.73,0,83.45,11.53,106.36,37.31,18.54,20.35,28.91,51.55,28.91,86.82,0,60.37-30.54,100.39-69.27,116.67v2.04c28.36,12.21,45.27,44.77,54,92.25,12,63.76,20.73,107.85,28.36,125.49h-49.09Z"/>
  </g>
  <g>
    <path class="cls-2" d="m134.53,640.51c-6.01,0-10.61.47-12.98,1.11v41.47c3.01.79,6.81,1.11,11.4,1.11,16.62,0,26.75-8.07,26.75-22.79s-9.97-20.89-25.17-20.89Z"/>
    <path class="cls-2" d="m234.57,639.88c-22.79,0-34.19,21.05-34.19,44.48s12.35,43.21,34.03,43.21,34.19-20.1,34.19-44.32c0-21.21-11.08-43.37-34.03-43.37Z"/>
    <path class="cls-2" d="m0,610.49v144.69h945.19v-144.69H0Zm89.89,126.57H29.9v-106.69h57.62v11.55h-43.85v33.72h41.47v11.4h-41.47v38.46h46.22v11.55Zm75.35-53.5c-7.28,7.76-19.15,11.71-32.61,11.71-4.12,0-7.91-.16-11.08-.95v42.74h-13.77v-105.42c6.65-1.11,15.35-2.06,26.43-2.06,13.61,0,23.58,3.17,29.92,8.86,5.86,5.07,9.34,12.82,9.34,22.32s-2.85,17.25-8.23,22.79Zm68.38,55.24c-28.18,0-47.96-21.84-47.96-54.14,0-33.87,21.05-56.03,49.54-56.03s47.96,22.32,47.96,53.98c0,36.72-22.32,56.19-49.54,56.19Zm89.28-.16c-10.29,0-21.53-3.01-27.23-6.81l3.48-11.55c6.17,3.8,15.2,6.96,24.69,6.96,14.09,0,22.32-7.44,22.32-18.2,0-9.97-5.7-15.67-20.1-21.21-17.41-6.17-28.17-15.2-28.17-30.23,0-16.62,13.77-28.97,34.51-28.97,10.92,0,18.84,2.53,23.58,5.22l-3.8,11.24c-3.48-1.9-10.61-5.07-20.26-5.07-14.56,0-20.1,8.71-20.1,15.99,0,9.97,6.49,14.88,21.21,20.58,18.04,6.97,27.23,15.67,27.23,31.34,0,16.46-12.19,30.71-37.36,30.71Zm111.59,0c-10.29,0-21.53-3.01-27.22-6.81l3.48-11.55c6.17,3.8,15.2,6.96,24.69,6.96,14.09,0,22.32-7.44,22.32-18.2,0-9.97-5.7-15.67-20.1-21.21-17.41-6.17-28.18-15.2-28.18-30.23,0-16.62,13.77-28.97,34.51-28.97,10.92,0,18.84,2.53,23.59,5.22l-3.8,11.24c-3.48-1.9-10.61-5.07-20.26-5.07-14.56,0-20.1,8.71-20.1,15.99,0,9.97,6.49,14.88,21.21,20.58,18.05,6.97,27.23,15.67,27.23,31.34,0,16.46-12.19,30.71-37.36,30.71Zm93.87-47.01v45.43h-13.93v-45.27l-33.71-61.42h15.67l15.04,29.44c4.11,8.07,7.28,14.56,10.61,22h.32c3.01-6.96,6.65-13.93,10.76-22l15.35-29.44h15.67l-35.77,61.26Zm67.75,47.01c-10.29,0-21.53-3.01-27.23-6.81l3.48-11.55c6.17,3.8,15.2,6.96,24.69,6.96,14.09,0,22.32-7.44,22.32-18.2,0-9.97-5.7-15.67-20.1-21.21-17.41-6.17-28.18-15.2-28.18-30.23,0-16.62,13.77-28.97,34.51-28.97,10.92,0,18.84,2.53,23.58,5.22l-3.8,11.24c-3.48-1.9-10.61-5.07-20.26-5.07-14.56,0-20.1,8.71-20.1,15.99,0,9.97,6.49,14.88,21.21,20.58,18.05,6.97,27.22,15.67,27.22,31.34,0,16.46-12.19,30.71-37.36,30.71Zm122.99-96.56h-32.61v94.97h-13.93v-94.97h-32.45v-11.71h78.99v11.71Zm71.86,94.97h-59.99v-106.69h57.62v11.55h-43.85v33.72h41.47v11.4h-41.47v38.46h46.22v11.55Zm110.49,0l-2.69-46.85c-.79-14.88-1.74-32.77-1.58-46.06h-.47c-3.64,12.51-8.07,25.8-13.46,40.52l-18.84,51.76h-10.45l-17.25-50.81c-5.07-15.04-9.34-28.81-12.35-41.47h-.32c-.32,13.3-1.11,31.18-2.06,47.17l-2.85,45.75h-13.14l7.44-106.69h17.57l18.2,51.6c4.43,13.14,8.07,24.85,10.76,35.93h.47c2.69-10.76,6.49-22.48,11.24-35.93l18.99-51.6h17.57l6.65,106.69h-13.45Z"/>
  </g>
</svg>